
<svg xmlns="http://www.w3.org/2000/svg" xmlns:xlink="http://www.w3.org/1999/xlink" width="500" zoomAndPan="magnify" viewBox="0 0 375 374.999991" height="500" preserveAspectRatio="xMidYMid meet" version="1.0"><defs><g/><clipPath id="efaaa61485"><path d="M 5.925781 4.789062 L 369.074219 4.789062 L 369.074219 367.941406 L 5.925781 367.941406 Z M 5.925781 4.789062 " clip-rule="nonzero"/></clipPath><clipPath id="588c4cc1b4"><path d="M 187.5 4.789062 C 87.21875 4.789062 5.925781 86.085938 5.925781 186.367188 C 5.925781 286.648438 87.21875 367.941406 187.5 367.941406 C 287.78125 367.941406 369.074219 286.648438 369.074219 186.367188 C 369.074219 86.085938 287.78125 4.789062 187.5 4.789062 Z M 187.5 4.789062 " clip-rule="nonzero"/></clipPath></defs><g clip-path="url(#efaaa61485)"><g clip-path="url(#588c4cc1b4)"><path fill="#111827" d="M 5.925781 4.789062 L 369.074219 4.789062 L 369.074219 367.941406 L 5.925781 367.941406 Z M 5.925781 4.789062 " fill-opacity="1" fill-rule="nonzero"/></g></g><g fill="#ffffff" fill-opacity="1"><g transform="translate(3.000004, 281.643777)"><g><path d="M 110.390625 -160.328125 L 110.390625 -103.90625 L 66.15625 -79.953125 L 114.453125 -51.953125 L 162.75 -79.953125 L 162.75 -135.96875 L 66.15625 -192.390625 L 114.453125 -220.390625 L 211.0625 -164.375 L 211.0625 -51.953125 L 114.453125 4.46875 L 17.859375 -51.953125 L 17.859375 -107.96875 Z M 110.390625 -160.328125 "/></g></g></g><g fill="#ffffff" fill-opacity="1"><g transform="translate(130.320348, 281.643777)"><g><path d="M 216.734375 -164.375 L 216.734375 -51.546875 L 120.546875 4.46875 L 72.25 -23.546875 L 72.25 60.875 L 19.890625 32.46875 L 19.890625 -164.375 L 120.546875 -220.796875 Z M 72.25 -80.359375 L 120.546875 -51.546875 L 168.4375 -80.359375 L 168.4375 -136.375 L 120.546875 -164.375 L 72.25 -136.375 Z M 72.25 -80.359375 "/></g></g></g></svg>