
<svg xmlns="http://www.w3.org/2000/svg" xmlns:xlink="http://www.w3.org/1999/xlink" width="500" zoomAndPan="magnify" viewBox="0 0 375 374.999991" height="500" preserveAspectRatio="xMidYMid meet" version="1.0"><defs><g/></defs><g fill="#ffffff" fill-opacity="1"><g transform="translate(3.000004, 281.643777)"><g><path d="M 110.390625 -160.328125 L 110.390625 -103.90625 L 66.15625 -79.953125 L 114.453125 -51.953125 L 162.75 -79.953125 L 162.75 -135.96875 L 66.15625 -192.390625 L 114.453125 -220.390625 L 211.0625 -164.375 L 211.0625 -51.953125 L 114.453125 4.46875 L 17.859375 -51.953125 L 17.859375 -107.96875 Z M 110.390625 -160.328125 "/></g></g></g><g fill="#ffffff" fill-opacity="1"><g transform="translate(130.320348, 281.643777)"><g><path d="M 216.734375 -164.375 L 216.734375 -51.546875 L 120.546875 4.46875 L 72.25 -23.546875 L 72.25 60.875 L 19.890625 32.46875 L 19.890625 -164.375 L 120.546875 -220.796875 Z M 72.25 -80.359375 L 120.546875 -51.546875 L 168.4375 -80.359375 L 168.4375 -136.375 L 120.546875 -164.375 L 72.25 -136.375 Z M 72.25 -80.359375 "/></g></g></g></svg>